<svg width="24" height="24" viewBox="0 0 24 24" fill="none" xmlns="http://www.w3.org/2000/svg">
<path d="M4 12.0001C4 16.4184 7.58172 20.0001 12 20.0001C15.7933 20.0001 18.97 17.36 19.7928 13.817C19.8622 13.5181 19.6268 13.2434 19.3199 13.2434H11.1687C10.8925 13.2434 10.6687 13.0196 10.6687 12.7434V4.70107C10.6687 4.39193 10.3902 4.15597 10.09 4.22952C6.59395 5.08593 4 8.24008 4 12.0001Z" stroke="black" stroke-linecap="round"/>
<path d="M20.9846 10.4999C20.7367 6.47997 17.52 3.26332 13.5001 3.01538C13.2245 2.99838 13 3.22386 13 3.5V10.5C13 10.7761 13.2239 11 13.5 11H20.5C20.7761 11 21.0016 10.7755 20.9846 10.4999Z" stroke="black"/>
</svg>
